<svg width="1406" height="480" xmlns="http://www.w3.org/2000/svg" xmlns:xlink="http://www.w3.org/1999/xlink" xml:space="preserve" overflow="hidden"><g transform="translate(-330 -714)"><text fill="#2F5496" font-family="Georgia,Georgia_MSFontService,sans-serif" font-weight="700" font-size="147" transform="matrix(1 0 0 1 709.5 890)">MHASTECH</text><text fill="#ED7D31" font-family="Georgia,Georgia_MSFontService,sans-serif" font-weight="700" font-size="147" transform="matrix(1 0 0 1 709.5 1078)">SOLUTIONS</text><path d="M412.5 755C458.063 755 495 789.922 495 833 495 859 495 885 495 911 467.5 911 440 911 412.5 911 366.937 911 330 876.078 330 833 330 789.922 366.937 755 412.5 755Z" fill="#2F5597" fill-rule="evenodd"/><path d="M677 833C677 876.078 640.063 911 594.5 911 567 911 539.5 911 512 911 512 885 512 859 512 833 512 789.922 548.936 755 594.5 755 640.063 755 677 789.922 677 833Z" fill="#ED7D31" fill-rule="evenodd"/><path d="M594.5 1082C548.936 1082 512 1047.3 512 1004.5 512 978.667 512 952.834 512 927 539.5 927 567 927 594.5 927 640.063 927 677 961.698 677 1004.5 677 1047.3 640.063 1082 594.5 1082Z" fill="#2F5597" fill-rule="evenodd"/><path d="M330 1004.5C330 961.698 366.937 927 412.5 927 440 927 467.5 927 495 927 495 952.833 495 978.667 495 1004.5 495 1047.3 458.063 1082 412.5 1082 366.937 1082 330 1047.3 330 1004.5Z" fill="#ED7D31" fill-rule="evenodd"/></g></svg>